<svg width="54" height="75" viewBox="0 0 54 75" fill="none" xmlns="http://www.w3.org/2000/svg">
<g clip-path="url(#clip0_1641_1991)">
<path d="M50 1.5H4C2.34315 1.5 1 2.84315 1 4.5V70.5C1 72.1569 2.34315 73.5 4 73.5H50C51.6569 73.5 53 72.1569 53 70.5V4.5C53 2.84315 51.6569 1.5 50 1.5Z" stroke="#0A3D62" stroke-width="2"/>
<path d="M6.5 9.5H13.5" stroke="#0A3D62" stroke-width="3" stroke-linecap="round"/>
<path d="M19.5 9.5H30" stroke="#0A3D62" stroke-width="3" stroke-linecap="round"/>
<path d="M26.75 47.75C34.482 47.75 40.75 41.482 40.75 33.75C40.75 26.018 34.482 19.75 26.75 19.75C19.018 19.75 12.75 26.018 12.75 33.75C12.75 41.482 19.018 47.75 26.75 47.75Z" stroke="#0A3D62" stroke-width="2.5"/>
<mask id="mask0_1641_1991" style="mask-type:luminance" maskUnits="userSpaceOnUse" x="17" y="18" width="20" height="31">
<path d="M26.342 18.9746C32.0717 21.4836 36.0753 27.2026 36.0754 33.8579C36.0754 40.3028 32.3216 45.871 26.8811 48.4951C21.1516 45.9861 17.1483 40.267 17.1482 33.6118C17.1482 27.1672 20.9017 21.5989 26.342 18.9746Z" fill="white"/>
</mask>
<g mask="url(#mask0_1641_1991)">
<path d="M26.342 18.9749L27.3448 16.6849L26.2915 16.2236L25.2558 16.7232L26.342 18.9749ZM26.8811 48.4954L25.8782 50.7856L26.9315 51.2466L27.9672 50.7471L26.8811 48.4954ZM26.342 18.9749L25.3392 21.265C30.1926 23.3902 33.5753 28.2316 33.5754 33.8583L36.0754 33.8582H38.5754C38.5753 26.1743 33.9509 19.5775 27.3448 16.6849L26.342 18.9749ZM36.0754 33.8582L33.5754 33.8583C33.5754 39.3074 30.4039 44.0206 25.795 46.2437L26.8811 48.4954L27.9672 50.7471C34.2392 47.7219 38.5754 41.2988 38.5754 33.8582H36.0754ZM26.8811 48.4954L27.8839 46.2054C23.0308 44.0801 19.6482 39.2386 19.6482 33.6121L17.1482 33.6121H14.6482C14.6483 41.2958 19.2723 47.8927 25.8782 50.7856L26.8811 48.4954ZM17.1482 33.6121L19.6482 33.6121C19.6482 28.1631 22.8195 23.4498 27.4282 21.2266L26.342 18.9749L25.2558 16.7232C18.984 19.7486 14.6482 26.1718 14.6482 33.6121H17.1482Z" fill="#0A3D62"/>
</g>
<path d="M12.75 33.6299H40.75" stroke="#0A3D62" stroke-width="2.5" stroke-linecap="round"/>
<path d="M37.5 58.5H16.5C15.3954 58.5 14.5 59.3954 14.5 60.5V61C14.5 62.1046 15.3954 63 16.5 63H37.5C38.6046 63 39.5 62.1046 39.5 61V60.5C39.5 59.3954 38.6046 58.5 37.5 58.5Z" stroke="#0A3D62" stroke-width="2"/>
</g>
<defs>
<clipPath id="clip0_1641_1991">
<rect width="54" height="74" fill="white" transform="translate(0 0.5)"/>
</clipPath>
</defs>
</svg>
